<svg xmlns="http://www.w3.org/2000/svg" width="16" height="12.978" viewBox="0 1.999 16 12.978"><path d="M5.067 14.977c6.044 0 9.333-4.978 9.333-9.333v-.445c.622-.444 1.156-1.066 1.6-1.689a7.379 7.379 0 0 1-1.867.534c.711-.445 1.156-1.067 1.423-1.778a8.153 8.153 0 0 1-2.045.8 3.175 3.175 0 0 0-2.4-1.067C9.333 2 7.822 3.51 7.822 5.29c0 .266 0 .532.09.71-2.756-.178-5.156-1.422-6.756-3.466C.889 2.977.71 3.599.71 4.22c0 1.156.622 2.134 1.422 2.756-.533 0-1.066-.178-1.51-.444 0 1.6 1.155 2.933 2.666 3.2-.267.088-.533.088-.889.088-.178 0-.444 0-.622-.088.444 1.333 1.6 2.222 3.11 2.31-1.155.89-2.577 1.423-4.088 1.423-.267 0-.533 0-.8-.089 1.422 1.067 3.2 1.6 5.067 1.6" fill="#fff" fill-rule="evenodd" data-name="Path 2"/></svg>