<svg xmlns="http://www.w3.org/2000/svg" width="16" height="16"><path d="M2.4 2.4C3.867.8 5.733 0 8 0c2.267 0 4.133.8 5.6 2.4C15.2 3.867 16 5.733 16 8c0 2.267-.8 4.133-2.4 5.6C12.133 15.2 10.267 16 8 16c-2.267 0-4.133-.8-5.6-2.4C.933 12 0 10.267 0 8c0-2.267.8-4.133 2.4-5.6Zm6.667 12c.533 0 1.2-.4 2-1.2.533-.933.933-1.867.933-2.8 0-.667-.267-1.2-.667-1.6C10.8 8.267 10.267 8 9.6 8H8.267c-.4 0-.8-.133-1.2-.267-.267-.266-.4-.533-.4-.933 0-.267.133-.4.266-.533.134-.134.4-.267.534-.267.133 0 .533.133.666.4.267.133.4.267.534.267.133 0 .4 0 .533-.134.133-.133.133-.4.133-.533 0-.4-.266-.933-.666-1.333.4-.8.666-1.6.666-2.534a.287.287 0 0 0-.266-.266c-.4-.134-.8-.267-1.067-.267-1.467.133-2.533.4-3.467 1.067-.8.666-1.2 1.6-1.2 2.666 0 1.067.4 1.867 1.067 2.534a3.643 3.643 0 0 0 2.533 1.066v.534c0 .533.134.933.534 1.333.266.4.666.667 1.2.8V14c0 .133 0 .133.133.267.133.133.133.133.267.133Z" fill="#fff" fill-rule="evenodd" data-name="Path 4"/></svg>